<?xml version="1.0" encoding="UTF-8" standalone="no"?>
<!-- Uploaded to: SVG Repo, www.svgrepo.com, Generator: SVG Repo Mixer Tools -->

<svg
   width="800px"
   height="800px"
   viewBox="0 0 512 512"
   version="1.1"
   id="svg166"
   sodipodi:docname="telescope_gal.svg"
   xml:space="preserve"
   inkscape:version="1.2.2 (732a01da63, 2022-12-09, custom)"
   xmlns:inkscape="http://www.inkscape.org/namespaces/inkscape"
   xmlns:sodipodi="http://sodipodi.sourceforge.net/DTD/sodipodi-0.dtd"
   xmlns="http://www.w3.org/2000/svg"
   xmlns:svg="http://www.w3.org/2000/svg"><defs
     id="defs170" /><sodipodi:namedview
     id="namedview168"
     pagecolor="#000000"
     bordercolor="#000000"
     borderopacity="0.25"
     inkscape:showpageshadow="2"
     inkscape:pageopacity="0"
     inkscape:pagecheckerboard="0"
     inkscape:deskcolor="#ffffff"
     showgrid="false"
     inkscape:zoom="1.08375"
     inkscape:cx="400"
     inkscape:cy="400"
     inkscape:window-width="1846"
     inkscape:window-height="1129"
     inkscape:window-x="0"
     inkscape:window-y="0"
     inkscape:window-maximized="1"
     inkscape:current-layer="svg166" /><path
     fill="#000000"
     d="m 75.97796,309.17454 c -1.687831,0.0334 -3.358612,0.13377 -5.009722,0.30327 12.649876,30.43964 13.288226,49.11888 13.753126,63.84183 4.48023,-0.0721 8.95947,-0.25901 13.4374,-0.56589 -0.28425,-28.50263 -12.23808,-54.17844 -22.180804,-63.57888 z m 13.293144,1.20096 c 9.05946,4.3399 17.195006,11.66203 23.749286,19.98479 l 5.96937,-4.25564 c -8.04998,-7.81819 -18.2881,-13.39642 -29.718986,-15.72915 z m -24.315188,0.0295 c -26.5312,5.47988 -46.618283,28.44034 -47.718914,56.33872 20.568384,4.05237 41.090868,6.47854 61.583512,6.59985 -0.45736,-14.92753 -1.0121,-32.54024 -13.86427,-62.93857 z m 80.020474,4.76809 c -0.62425,-0.0147 -1.22391,0.081 -1.79078,0.27967 -1.81504,0.63605 -3.27862,2.32355 -4.08614,5.08513 -0.80785,2.76223 -0.79801,6.44706 0.39999,10.15944 1.19833,3.71237 3.32681,6.65395 5.57168,8.34571 2.24519,1.69176 4.38941,2.11569 6.20445,1.47931 1.81504,-0.63605 3.27795,-2.32355 4.08515,-5.08579 0.80785,-2.7619 0.799,-6.44673 -0.39934,-10.15911 -0.57179,-1.77242 -1.35734,-3.36648 -2.26552,-4.7353 a 5.0221808,3.1868127 76.94 0 0 -2.01503,-2.48355 c -0.42229,-0.42032 -0.85474,-0.79834 -1.29178,-1.12784 -1.54324,-1.16293 -3.03862,-1.72619 -4.41301,-1.758 z m 1.90323,2.90387 a 9.4928987,6.0877303 76.585 0 1 1.13112,0.1 5.0221808,3.1868127 76.94 0 0 -0.96194,5.58676 5.0221808,3.1868127 76.94 0 0 4.39859,3.65237 5.0221808,3.1868127 76.94 0 0 1.88323,-4.1881 9.4928987,6.0877303 76.585 0 1 0.7672,2.00192 9.4928987,6.0877303 76.585 0 1 -3.02452,11.26532 9.4928987,6.0877303 76.585 0 1 -8.40637,-6.90148 9.4928987,6.0877303 76.585 0 1 3.02387,-11.26434 9.4928987,6.0877303 76.585 0 1 1.18915,-0.25245 z m -14.17115,5.49561 -4.48187,3.19468 c -0.0957,6.46871 1.10817,10.43911 2.82092,13.45806 1.68947,2.97698 4.03598,5.1507 6.60543,7.71687 l 5.27856,-3.15075 c -0.48425,-0.28983 -0.95637,-0.60523 -1.41144,-0.94817 -3.35304,-2.52716 -6.05396,-6.43199 -7.59065,-11.19319 -0.99112,-3.07108 -1.38587,-6.16248 -1.22062,-9.07783 z m -10.25059,7.30803 -21.18968,15.10556 c 1.68062,6.38346 3.06616,14.22919 3.30386,21.70213 l 27.83773,-16.61602 c -2.21504,-2.17372 -4.59006,-4.57465 -6.49559,-7.93424 -1.79341,-3.16058 -3.05961,-7.10148 -3.45665,-12.25743 z m 13.26429,25.08665 -7.30147,4.35793 c 0.73113,2.93665 1.14587,5.69823 1.20751,8.1844 2.50158,-0.51048 5.00316,-1.05965 7.50475,-1.65766 -0.14098,-3.72648 -0.62294,-7.36377 -1.41112,-10.885 z M 17.184544,372.69572 v 9.87748 c 40.024335,9.64765 79.97293,9.64765 119.997266,0 v -9.7047 c -40.088916,9.34208 -80.126042,7.57261 -119.997266,-0.17278 z m 0,15.94914 v 51.48735 c 5.795934,1.12588 11.587933,2.12323 17.376654,2.98551 v -18.2245 c 1.407181,-2.1311 4.007777,-3.18026 6.793288,-3.23436 4.072038,-0.08 8.53915,1.96389 10.255504,5.85725 v 17.72255 c 28.583944,2.82223 57.09312,1.82815 85.57182,-4.98579 v -51.60866 c -39.975476,9.41749 -80.021782,9.41749 -119.997266,0 z m 108.189006,28.76328 c 2.25897,0.005 4.26745,1.04424 4.26745,3.33927 v 10.49156 l -10.49157,1.31145 v -10.49156 c 0,-2.95076 3.3196,-4.65662 6.22412,-4.65072 z m -26.716106,3.86319 c 2.449116,6.6e-4 4.754646,1.16293 4.754646,3.62189 v 10.49156 l -10.491566,0.65572 v -10.49156 c 0,-2.78682 2.96059,-4.27859 5.73692,-4.27761 z m -26.720048,1.65472 c 2.622891,0 5.245778,1.31144 5.245778,3.93434 v 10.49156 h -10.49156 v -10.49156 c 0,-2.6229 2.622891,-3.93434 5.245782,-3.93434 z"
     id="path164"
     style="stroke-width:0.327861;fill:#ffffff;fill-opacity:1" /><path
     d="m 419.07441,188.15196 c -1.90199,15.14831 -12.43521,26.14947 -31.30673,32.69743 -16.49567,5.72339 -34.68547,6.34141 -41.74045,6.34141 -7.95508,0 -21.91892,-2.28555 -33.77782,-7.30423 -16.65,-7.04578 -20.14466,-15.39854 -20.14466,-21.16462 0,-4.62921 2.18047,-8.59378 6.66618,-12.12095 6.56996,-5.16579 16.63162,-8.18429 25.94555,-9.55857 -2.82081,4.10577 -4.47685,9.07158 -4.47685,14.41832 0,13.8512 11.09147,25.15283 24.85795,25.50978 2.90258,0.63509 6.52366,0.97103 10.57656,0.97103 13.89849,0 32.74866,-3.90185 44.1232,-12.84536 7.10161,-5.58416 10.85602,-12.75736 10.85602,-20.74495 0,-9.08275 -4.65648,-21.88049 -26.84007,-31.26798 -13.33925,-5.64491 -28.724,-8.17182 -38.05336,-8.17182 -9.45382,0 -27.91421,0.9024 -45.33658,6.9476 -10.20779,3.54195 -18.56809,8.3787 -24.84908,14.37596 -7.77841,7.42901 -12.40335,16.62046 -13.74677,27.32115 l 10.88524,1.36673 c 1.902,-15.14831 12.43522,-26.14948 31.30674,-32.69744 16.49567,-5.72339 34.68546,-6.3414 41.74045,-6.3414 7.95508,0 21.91891,2.28554 33.77781,7.30422 16.65001,7.04579 20.14467,15.39854 20.14467,21.16462 0,4.62922 -2.1808,8.59379 -6.66618,12.12095 -6.66552,5.24067 -16.92323,8.27 -26.34848,9.61637 2.91013,-4.14583 4.62528,-9.18881 4.62528,-14.62749 0,-14.02787 -11.37454,-25.44576 -25.38435,-25.52325 -13.14977,-2.52297 -39.52123,0.71883 -53.91886,12.03918 -7.10162,5.58415 -10.85602,12.75735 -10.85602,20.74494 0,9.08275 4.65647,21.8805 26.84039,31.26799 13.33926,5.6449 28.724,8.17181 38.05337,8.17181 9.45382,0 27.91421,-0.90239 45.33657,-6.9476 10.20779,-3.54194 18.5681,-8.37869 24.84908,-14.37596 7.77841,-7.42704 12.40303,-16.61881 13.74678,-27.31917 z"
     id="path18"
     style="fill:#0324d8;fill-opacity:0;stroke-width:0.328383" /></svg>
