<?xml version="1.0" encoding="UTF-8" standalone="no"?>
<!-- Created with Inkscape (http://www.inkscape.org/) -->

<svg
   width="212.10295mm"
   height="135.99454mm"
   viewBox="0 0 212.10295 135.99454"
   version="1.1"
   id="svg549"
   inkscape:export-filename="snmodel_par.svg"
   inkscape:export-xdpi="96"
   inkscape:export-ydpi="96"
   sodipodi:docname="snmodel_par.svg"
   xml:space="preserve"
   inkscape:version="1.2.2 (732a01da63, 2022-12-09, custom)"
   xmlns:inkscape="http://www.inkscape.org/namespaces/inkscape"
   xmlns:sodipodi="http://sodipodi.sourceforge.net/DTD/sodipodi-0.dtd"
   xmlns:xlink="http://www.w3.org/1999/xlink"
   xmlns="http://www.w3.org/2000/svg"
   xmlns:svg="http://www.w3.org/2000/svg"><sodipodi:namedview
     id="namedview551"
     pagecolor="#9f9f9f"
     bordercolor="#000000"
     borderopacity="0.25"
     inkscape:showpageshadow="2"
     inkscape:pageopacity="0"
     inkscape:pagecheckerboard="0"
     inkscape:deskcolor="#ffffff"
     inkscape:document-units="mm"
     showgrid="false"
     inkscape:zoom="0.97134925"
     inkscape:cx="394.81165"
     inkscape:cy="274.36064"
     inkscape:window-width="1850"
     inkscape:window-height="1129"
     inkscape:window-x="0"
     inkscape:window-y="0"
     inkscape:window-maximized="1"
     inkscape:current-layer="pdist" /><defs
     id="defs546"><path
       id="g1-48-5"
       d="m 6.427096,-4.590783 c 0,-1.190734 -0.071731,-2.352776 -0.588194,-3.443087 -0.588194,-1.190734 -1.62112,-1.50635 -2.324084,-1.50635 -0.832079,0 -1.850659,0.41604 -2.381469,1.606774 -0.401693,0.90381 -0.545155,1.793274 -0.545155,3.342663 0,1.391581 0.100423,2.438854 0.616886,3.457434 0.559502,1.09031 1.54939,1.434619 2.295392,1.434619 1.248119,0 1.965429,-0.746002 2.381468,-1.578081 0.516463,-1.075965 0.545156,-2.481892 0.545156,-3.313972 z M 3.500472,0.014346 c -0.459079,0 -1.391581,-0.258231 -1.664159,-1.821967 -0.157808,-0.860771 -0.157808,-1.951082 -0.157808,-2.955316 0,-1.176388 0,-2.238006 0.229539,-3.084432 0.243885,-0.961195 0.975541,-1.405927 1.592428,-1.405927 0.545155,0 1.377235,0.329962 1.649812,1.563735 0.186501,0.817733 0.186501,1.951083 0.186501,2.926624 0,0.961195 0,2.051506 -0.157808,2.926624 -0.272578,1.578081 -1.176388,1.850659 -1.678505,1.850659 z" /><path
       id="g0-11-6"
       d="m 9.566747,-5.227618 c 0,-2.004264 -1.136438,-3.884554 -3.326666,-3.884554 -2.70679,0 -5.41358,2.954741 -5.41358,5.888819 0,1.797639 1.115776,3.429978 3.223353,3.429978 1.281076,0 2.810103,-0.4959 4.277142,-1.735652 0.289275,1.157102 0.929813,1.735652 1.818302,1.735652 1.115776,0 1.673664,-1.157101 1.673664,-1.425714 0,-0.185962 -0.144638,-0.185962 -0.206625,-0.185962 -0.1653,0 -0.185963,0.061987 -0.24795,0.227287 -0.185963,0.516563 -0.661201,0.971139 -1.157102,0.971139 -0.640538,0 -0.640538,-1.322402 -0.640538,-2.582815 2.107577,-2.520828 2.603478,-5.124306 2.603478,-5.144968 0,-0.185963 -0.1653,-0.185963 -0.227288,-0.185963 -0.185963,0 -0.206625,0.061988 -0.289275,0.433913 -0.268613,0.909151 -0.805838,2.520828 -2.086915,4.215154 z m -1.301739,3.202691 c -1.818301,1.632339 -3.450641,1.818302 -4.173829,1.818302 -1.467039,0 -1.880289,-1.301739 -1.880289,-2.272878 0,-0.888488 0.454575,-2.996065 1.095113,-4.132504 0.847164,-1.446376 2.004265,-2.086914 2.934078,-2.086914 2.004265,0 2.004265,2.62414 2.004265,4.359792 0,0.516563 -0.020663,1.053788 -0.020663,1.570351 0,0.413251 0.020663,0.516563 0.041325,0.743851 z" /><path
       id="g0-12-5"
       d="m 11.694987,-12.025587 c 0,-1.239752 -1.053789,-2.54149 -2.934078,-2.54149 -2.665465,0 -4.359792,3.264678 -4.897018,5.41358 L 0.599213,3.801904 c -0.041325,0.1653 0.08265,0.206625 0.185963,0.206625 0.144637,0 0.24795,-0.020662 0.268613,-0.123975 l 1.446376,-5.785506 c 0.206625,1.157101 1.343064,2.107577 2.562153,2.107577 2.95474,0 5.744181,-2.314202 5.744181,-5.392918 0,-0.785176 -0.185963,-1.570351 -0.619876,-2.231552 -0.24795,-0.392588 -0.557888,-0.681863 -0.888489,-0.929813 1.487702,-0.785176 2.396853,-2.04559 2.396853,-3.677929 z m -3.595279,3.657266 c -0.3306,0.123975 -0.6612,0.1653 -1.053788,0.1653 -0.289276,0 -0.557888,0.020663 -0.929814,-0.103312 0.206625,-0.144638 0.516563,-0.185963 0.950476,-0.185963 0.371926,0 0.743851,0.041325 1.033126,0.123975 z m 2.520828,-3.843229 c 0,1.136439 -0.557888,2.78944 -1.900952,3.553954 -0.392588,-0.144638 -0.929814,-0.247951 -1.384389,-0.247951 -0.433913,0 -1.673664,-0.041325 -1.673664,0.619876 0,0.557888 1.136438,0.495901 1.487701,0.495901 0.537226,0 1.012464,-0.123976 1.508364,-0.268613 0.661201,0.537225 0.950476,1.239751 0.950476,2.272877 0,1.198426 -0.3306,2.169565 -0.723188,3.058053 -0.681863,1.529027 -2.29354,2.520828 -3.719254,2.520828 -1.508364,0 -2.29354,-1.198426 -2.29354,-2.603478 0,-0.185963 0,-0.454575 0.082651,-0.764513 l 1.343063,-5.434243 c 0.681864,-2.70679 2.417515,-5.144968 4.42178,-5.144968 1.487701,0 1.900952,1.033126 1.900952,1.942277 z" /><path
       id="g0-77-8"
       d="m 18.761569,-12.604138 c 0.185963,-0.702526 0.227288,-0.909151 1.694327,-0.909151 0.392588,0 0.57855,0 0.57855,-0.392588 0,-0.206625 -0.144637,-0.206625 -0.537225,-0.206625 h -2.479503 c -0.516563,0 -0.537225,0.02066 -0.764513,0.351263 L 9.711385,-1.838964 8.161696,-13.657926 C 8.099708,-14.112502 8.079046,-14.112502 7.54182,-14.112502 H 4.979668 c -0.392588,0 -0.578551,0 -0.578551,0.392588 0,0.206625 0.185963,0.206625 0.4959,0.206625 1.260414,0 1.260414,0.1653 1.260414,0.392588 0,0.04133 0,0.1653 -0.08265,0.475238 L 3.429978,-2.107577 c -0.24795,0.991801 -0.723188,1.446376 -2.107577,1.508364 -0.061987,0 -0.309937,0.020662 -0.309937,0.371925 C 1.012464,0 1.198426,0 1.281076,0 1.694327,0 2.748115,-0.041325 3.161366,-0.041325 H 4.153167 C 4.442442,-0.041325 4.793705,0 5.08298,0 c 0.144638,0 0.371926,0 0.371926,-0.392588 0,-0.185963 -0.206626,-0.206625 -0.289276,-0.206625 -0.681863,-0.020663 -1.343064,-0.144638 -1.343064,-0.888489 0,-0.206625 0,-0.227287 0.08265,-0.516563 L 6.756644,-13.389314 H 6.777307 L 8.492296,-0.557888 C 8.554284,-0.061988 8.574946,0 8.760909,0 c 0.227288,0 0.3306,-0.1653 0.433913,-0.351263 l 8.306333,-13.141363 h 0.02066 l -2.996066,11.963599 c -0.185962,0.723189 -0.227287,0.929814 -1.673664,0.929814 -0.392588,0 -0.599213,0 -0.599213,0.371925 C 12.252875,0 12.438838,0 12.562813,0 c 0.351263,0 0.764513,-0.041325 1.115776,-0.041325 h 2.438177 C 16.468029,-0.041325 16.901942,0 17.253205,0 c 0.1653,0 0.392588,0 0.392588,-0.392588 0,-0.206625 -0.185963,-0.206625 -0.495901,-0.206625 -1.260413,0 -1.260413,-0.1653 -1.260413,-0.371925 0,-0.020663 0,-0.165301 0.04133,-0.330601 z" /></defs><g
     inkscape:label="Calque 1"
     inkscape:groupmode="layer"
     id="layer1"
     transform="translate(-15.846067,-150.95048)"><g
       id="g6763"
       transform="matrix(1.7074848,0,0,1.7074848,-39.026756,-80.403615)"
       inkscape:export-filename="survey_par.svg"
       inkscape:export-xdpi="96"
       inkscape:export-ydpi="96"><ellipse
         style="opacity:0.876147;fill:none;fill-opacity:0;stroke:#e78a0d;stroke-width:1.49999;stroke-linejoin:round;stroke-miterlimit:4.4;stroke-dasharray:none;stroke-dashoffset:1.56729;stroke-opacity:1"
         id="path234"
         cx="93.254852"
         cy="200.66339"
         rx="22.77693"
         ry="13.726827" /><text
         xml:space="preserve"
         style="font-style:normal;font-weight:normal;font-size:6.35px;line-height:1.25;font-family:sans-serif;fill:#000000;fill-opacity:1;stroke:none;stroke-width:1.5;stroke-dasharray:none"
         x="94.061005"
         y="191.18802"
         id="text979"><tspan
           sodipodi:role="line"
           id="tspan977"
           style="font-size:6.35px;text-align:center;text-anchor:middle;fill:#ffffff;fill-opacity:1;stroke-width:1.5;stroke-dasharray:none"
           x="94.061005"
           y="191.18802" /><tspan
           sodipodi:role="line"
           style="font-size:6.35px;text-align:center;text-anchor:middle;fill:#ffffff;fill-opacity:1;stroke-width:1.5;stroke-dasharray:none"
           x="94.061005"
           y="199.12552"
           id="tspan657">SNe Ia </tspan><tspan
           sodipodi:role="line"
           style="font-size:6.35px;text-align:center;text-anchor:middle;fill:#ffffff;fill-opacity:1;stroke-width:1.5;stroke-dasharray:none"
           x="94.061005"
           y="207.06302"
           id="tspan665">model</tspan></text></g><g
       id="g1993"
       transform="matrix(0.98153093,0,0,0.98153093,17.164561,58.705661)"><g
         id="sed"
         transform="matrix(0.99940476,0,0,1.0455361,-33.67332,-3.8874199)"><text
           xml:space="preserve"
           style="font-style:normal;font-weight:normal;font-size:6.35px;line-height:1.25;font-family:sans-serif;fill:#000000;fill-opacity:1;stroke:none;stroke-width:1.5;stroke-dasharray:none"
           x="175.96538"
           y="107.76357"
           id="text979-7-3-2-6"><tspan
             sodipodi:role="line"
             style="font-style:normal;font-variant:normal;font-weight:bold;font-stretch:normal;font-size:6.35px;font-family:sans-serif;-inkscape-font-specification:'sans-serif Bold';text-align:center;text-anchor:middle;fill:#ffffff;fill-opacity:1;stroke-width:1.5;stroke-dasharray:none"
             x="175.96538"
             y="107.76357"
             id="tspan1032-2">SED model</tspan><tspan
             sodipodi:role="line"
             style="font-style:normal;font-variant:normal;font-weight:normal;font-stretch:normal;font-size:6.35px;font-family:sans-serif;-inkscape-font-specification:sans-serif;text-align:center;text-anchor:middle;fill:#ffffff;fill-opacity:1;stroke-width:1.5;stroke-dasharray:none"
             x="175.96538"
             y="115.70107"
             id="tspan1854">SALT2</tspan><tspan
             sodipodi:role="line"
             style="font-style:normal;font-variant:normal;font-weight:normal;font-stretch:normal;font-size:4.83158px;font-family:sans-serif;-inkscape-font-specification:sans-serif;text-align:center;text-anchor:middle;fill:#ffffff;fill-opacity:1;stroke-width:1.5;stroke-dasharray:none"
             x="175.96538"
             y="123.63857"
             id="tspan12754">(<tspan
   style="font-style:italic;font-variant:normal;font-weight:normal;font-stretch:normal;font-size:4.83158px;font-family:sans-serif;-inkscape-font-specification:'sans-serif Italic'"
   id="tspan12756">Guy et al.</tspan> 2007)</tspan><tspan
             sodipodi:role="line"
             style="font-style:normal;font-variant:normal;font-weight:normal;font-stretch:normal;font-size:6.35px;font-family:sans-serif;-inkscape-font-specification:sans-serif;text-align:center;text-anchor:middle;fill:#ffffff;fill-opacity:1;stroke-width:1.5;stroke-dasharray:none"
             x="175.96538"
             y="131.57607"
             id="tspan12750" /><tspan
             sodipodi:role="line"
             style="font-size:6.35px;text-align:center;text-anchor:middle;fill:#ffffff;fill-opacity:1;stroke-width:1.5;stroke-dasharray:none"
             x="175.96538"
             y="139.51357"
             id="tspan6601-8-9-6" /></text><rect
           style="fill:#000000;fill-opacity:0;stroke:#e88a0d;stroke-width:1.60859;stroke-linejoin:round;stroke-miterlimit:2.3;stroke-opacity:1;paint-order:stroke fill markers"
           id="rect5062-4-4-1"
           width="63.532551"
           height="37.127529"
           x="144.16034"
           y="94.75605"
           ry="0.35476324" /></g><g
         id="stdpar"
         transform="matrix(0.99995673,0,0,1.0032083,-31.592495,-0.30278667)"><rect
           style="fill:#000000;fill-opacity:0;stroke:#e88a0d;stroke-width:1.64207;stroke-linejoin:round;stroke-miterlimit:2.3;stroke-opacity:1;paint-order:stroke fill markers"
           id="rect5062-4"
           width="63.4692"
           height="38.728504"
           x="70.854935"
           y="94.802856"
           ry="0.37006092" /><g
           id="g1875"
           transform="translate(0,-0.66186285)"><text
             xml:space="preserve"
             style="font-style:normal;font-weight:normal;font-size:6.35px;line-height:1.25;font-family:sans-serif;fill:#000000;fill-opacity:1;stroke:none;stroke-width:1.5;stroke-dasharray:none"
             x="103.467"
             y="102.4895"
             id="text979-7-3"><tspan
               sodipodi:role="line"
               style="font-style:normal;font-variant:normal;font-weight:bold;font-stretch:normal;font-size:6.35px;font-family:sans-serif;-inkscape-font-specification:'sans-serif Bold';text-align:center;text-anchor:middle;fill:#ffffff;fill-opacity:1;stroke-width:1.5;stroke-dasharray:none"
               x="103.467"
               y="102.4895"
               id="tspan667-0">Standardization </tspan><tspan
               sodipodi:role="line"
               style="font-style:normal;font-variant:normal;font-weight:bold;font-stretch:normal;font-size:6.35px;font-family:sans-serif;-inkscape-font-specification:'sans-serif Bold';text-align:center;text-anchor:middle;fill:#ffffff;fill-opacity:1;stroke-width:1.5;stroke-dasharray:none"
               x="103.467"
               y="110.427"
               id="tspan963">parameters</tspan><tspan
               sodipodi:role="line"
               style="font-size:6.35px;text-align:center;text-anchor:middle;fill:#ffffff;fill-opacity:1;stroke-width:1.5;stroke-dasharray:none"
               x="103.467"
               y="118.3645"
               id="tspan6601-8" /></text><g
             fill="#ffffff"
             id="g1172"
             transform="matrix(0.39863889,0,0,0.39863889,67.369298,90.378085)"><use
               x="56.413265"
               y="68.147202"
               xlink:href="#g0-11-6"
               id="use1164" /><use
               x="75.651054"
               y="68.147202"
               xlink:href="#g0-12-5"
               id="use1166" /><use
               x="94.455986"
               y="68.147202"
               xlink:href="#g0-77-8"
               id="use1168" /><use
               x="114.02905"
               y="71.246574"
               xlink:href="#g1-48-5"
               id="use1170" /></g><text
             xml:space="preserve"
             style="font-size:4.93109px;line-height:1.25;font-family:'Uber Move';-inkscape-font-specification:'Uber Move';stroke-width:0.264583"
             x="102.67184"
             y="123.97305"
             id="text1195"><tspan
               sodipodi:role="line"
               id="tspan1193"
               style="font-style:normal;font-variant:normal;font-weight:normal;font-stretch:normal;font-size:4.93109px;font-family:sans-serif;-inkscape-font-specification:sans-serif;text-align:center;text-anchor:middle;fill:#ffffff;fill-opacity:1;stroke-width:0.264583"
               x="102.67184"
               y="123.97305">(from </tspan><tspan
               sodipodi:role="line"
               style="font-style:normal;font-variant:normal;font-weight:normal;font-stretch:normal;font-size:4.93109px;font-family:sans-serif;-inkscape-font-specification:sans-serif;stroke-width:0.264583"
               x="103.31288"
               y="130.20158"
               id="tspan1197"><tspan
   style="font-size:4.93109px;text-align:center;text-anchor:middle;fill:#ffffff;fill-opacity:1"
   id="tspan1199"><tspan
   style="font-style:italic;font-variant:normal;font-weight:normal;font-stretch:normal;font-size:4.93109px;font-family:sans-serif;-inkscape-font-specification:'sans-serif Italic';fill:#ffffff;fill-opacity:1"
   id="tspan1201">Betoule et al.</tspan> 2014</tspan><tspan
   style="font-size:4.93109px;fill:#ffffff;fill-opacity:1"
   id="tspan1763">)</tspan> </tspan></text></g></g></g><g
       id="g3894"
       transform="matrix(0.98153093,0,0,0.98153093,-1.6294886,118.09111)"><g
         id="g4994"><g
           id="arrow2"><path
             style="color:#000000;fill:#e78a0d;fill-opacity:0.878431;stroke-width:2.165;-inkscape-stroke:none"
             d="M 154.60441,75.370461 139.5874,114.56873"
             id="path2647" /><path
             style="color:#000000;fill:#e78a0d;-inkscape-stroke:none"
             d="m 153.59375,74.982422 -15.01758,39.199218 2.02149,0.77344 15.01757,-39.197268 z"
             id="path2649" /><g
             id="g2637"><g
               id="path2639"><path
                 style="color:#000000;fill:#e78a0d;fill-rule:evenodd;stroke-width:1.0825pt;-inkscape-stroke:none"
                 d="m 137.35289,120.40138 -1.70446,-10.68024 10.10858,3.87264 z"
                 id="path2643" /><path
                 style="color:#000000;fill:#e78a0d;fill-rule:evenodd;-inkscape-stroke:none"
                 d="m 134.73828,108.59961 2.09961,13.14844 0.96875,-0.78516 9.37695,-7.5957 z m 1.82031,2.24219 7.77149,2.97851 -6.46094,5.23242 z"
                 id="path2645" /></g></g></g><g
           id="arrow1"><path
             style="color:#000000;fill:#e78a0d;fill-opacity:0.878431;stroke-width:2.165;-inkscape-stroke:none"
             d="m 95.00173,74.251101 15.01701,39.198269"
             id="path2631" /><path
             style="color:#000000;fill:#e78a0d;-inkscape-stroke:none"
             d="m 96.011719,73.863281 -2.021485,0.775391 15.017576,39.197268 2.02149,-0.77344 z"
             id="path2633" /><g
             id="g2621"><g
               id="path2623"><path
                 style="color:#000000;fill:#e78a0d;fill-rule:evenodd;stroke-width:1.0825pt;-inkscape-stroke:none"
                 d="m 112.25325,119.28202 -8.40412,-6.8076 10.10858,-3.87264 z"
                 id="path2627" /><path
                 style="color:#000000;fill:#e78a0d;fill-rule:evenodd;-inkscape-stroke:none"
                 d="m 114.86719,107.48047 -12.44336,4.76758 10.3457,8.38086 0.19727,-1.23243 z m -1.82031,2.24219 -1.3086,8.21289 -6.46289,-5.23438 z"
                 id="path2629" /></g></g></g></g><g
         id="g5120"
         transform="translate(0,-0.61160321)"><g
           id="arrow3"
           transform="translate(0,0.40234)"><path
             style="color:#000000;fill:#e78a0d;fill-opacity:0.878431;stroke-width:2.165;-inkscape-stroke:none"
             d="m 201.905,126.08662 -29.57236,13.80763"
             id="path2615" /><path
             style="color:#000000;fill:#e78a0d;-inkscape-stroke:none"
             d="m 201.44727,125.10547 -29.57227,13.80859 0.91602,1.96094 29.57226,-13.80664 z"
             id="path2617" /><g
             id="g2605"><g
               id="path2607"><path
                 style="color:#000000;fill:#e78a0d;fill-rule:evenodd;stroke-width:1.0825pt;-inkscape-stroke:none"
                 d="m 166.67313,142.53673 6.19452,-8.86569 4.57969,9.80852 z"
                 id="path2611" /><path
                 style="color:#000000;fill:#e78a0d;fill-rule:evenodd;-inkscape-stroke:none"
                 d="m 172.99219,132.23242 -7.625,10.91406 1.24218,0.10938 12.02149,1.05078 z m -0.25,2.87695 3.52148,7.54102 -8.2832,-0.72266 z"
                 id="path2613" /></g></g></g><g
           id="arrow0"><path
             style="color:#000000;fill:#e78a0d;fill-opacity:0.878431;stroke-width:2.165;-inkscape-stroke:none"
             d="m 46.347943,126.48807 29.57236,13.80763"
             id="path2599" /><path
             style="color:#000000;fill:#e78a0d;-inkscape-stroke:none"
             d="m 46.806641,125.50781 -0.916016,1.96094 29.572266,13.80859 0.916015,-1.96289 z"
             id="path2601" /><g
             id="g2589"><g
               id="path2591"><path
                 style="color:#000000;fill:#e78a0d;fill-rule:evenodd;stroke-width:1.0825pt;-inkscape-stroke:none"
                 d="m 81.579818,142.93818 -10.774215,0.94283 4.579694,-9.80852 z"
                 id="path2595" /><path
                 style="color:#000000;fill:#e78a0d;fill-rule:evenodd;-inkscape-stroke:none"
                 d="m 75.259766,132.63477 -5.636719,12.07421 13.263672,-1.16015 -0.714844,-1.02344 z m 0.25,2.87695 4.763671,6.8164 -8.285156,0.72461 z"
                 id="path2597" /></g></g></g></g></g><g
       id="g5177"
       transform="translate(-1.033657,54.410974)"><g
         id="rate"
         transform="matrix(0.98153093,0,0,0.98153093,-5.5700946,63.680129)"><text
           xml:space="preserve"
           style="font-style:normal;font-weight:normal;font-size:6.35px;line-height:1.25;font-family:sans-serif;fill:#000000;fill-opacity:1;stroke:none;stroke-width:1.5;stroke-dasharray:none"
           x="58.464844"
           y="91.419975"
           id="text979-7"><tspan
             sodipodi:role="line"
             style="font-style:normal;font-variant:normal;font-weight:bold;font-stretch:normal;font-size:6.35px;font-family:sans-serif;-inkscape-font-specification:'sans-serif Bold';text-align:center;text-anchor:middle;fill:#ffffff;fill-opacity:1;stroke-width:1.5;stroke-dasharray:none"
             x="58.464844"
             y="91.419975"
             id="tspan5170">SNe Ia </tspan><tspan
             sodipodi:role="line"
             style="font-style:normal;font-variant:normal;font-weight:bold;font-stretch:normal;font-size:6.35px;font-family:sans-serif;-inkscape-font-specification:'sans-serif Bold';text-align:center;text-anchor:middle;fill:#ffffff;fill-opacity:1;stroke-width:1.5;stroke-dasharray:none"
             x="58.464844"
             y="99.357475"
             id="tspan667">explosion rate</tspan><tspan
             sodipodi:role="line"
             style="font-size:4.93889px;text-align:center;text-anchor:middle;fill:#ffffff;fill-opacity:1;stroke-width:1.5;stroke-dasharray:none"
             x="58.464844"
             y="107.29498"
             id="tspan6601">(from </tspan><tspan
             sodipodi:role="line"
             style="font-style:italic;font-variant:normal;font-weight:normal;font-stretch:normal;font-size:4.93889px;font-family:sans-serif;-inkscape-font-specification:'sans-serif Italic';text-align:center;text-anchor:middle;fill:#ffffff;fill-opacity:1;stroke-width:1.5;stroke-dasharray:none"
             x="58.464844"
             y="115.23248"
             id="tspan1086">Perley et al. <tspan
   style="font-style:normal;font-variant:normal;font-weight:normal;font-stretch:normal;font-size:4.93889px;font-family:sans-serif;-inkscape-font-specification:sans-serif"
   id="tspan1088">2019</tspan>)</tspan></text><rect
           style="fill:#000000;fill-opacity:0;stroke:#e88a0d;stroke-width:1.64906;stroke-linejoin:round;stroke-miterlimit:2.3;stroke-opacity:1;paint-order:stroke fill markers"
           id="rect5062"
           width="69.502029"
           height="44.605213"
           x="23.696777"
           y="79.18084"
           ry="0.34082124" /></g><g
         id="pdist"
         transform="matrix(0.99939155,0,0,1.0464728,28.19038,39.79597)"><text
           xml:space="preserve"
           style="font-style:normal;font-weight:normal;font-size:6.23272px;line-height:1.25;font-family:sans-serif;fill:#000000;fill-opacity:1;stroke:none;stroke-width:1.4723;stroke-dasharray:none"
           x="166.70415"
           y="104.30629"
           id="text979-7-3-2"><tspan
             sodipodi:role="line"
             style="font-style:normal;font-variant:normal;font-weight:bold;font-stretch:normal;font-size:6.23272px;font-family:sans-serif;-inkscape-font-specification:'sans-serif Bold';text-align:center;text-anchor:middle;fill:#ffffff;fill-opacity:1;stroke-width:1.4723;stroke-dasharray:none"
             x="166.70415"
             y="104.30629"
             id="tspan963-7">x<tspan
   style="font-size:4.05127px;baseline-shift:sub;stroke-width:1.4723"
   id="tspan1881">1</tspan>, c and σ<tspan
   style="font-size:4.05127px;baseline-shift:sub;stroke-width:1.4723"
   id="tspan1885">int</tspan></tspan><tspan
             sodipodi:role="line"
             style="font-style:normal;font-variant:normal;font-weight:bold;font-stretch:normal;font-size:6.23272px;font-family:sans-serif;-inkscape-font-specification:'sans-serif Bold';text-align:center;text-anchor:middle;fill:#ffffff;fill-opacity:1;stroke-width:1.4723;stroke-dasharray:none"
             x="166.70415"
             y="112.09719"
             id="tspan1032">distributions</tspan><tspan
             sodipodi:role="line"
             style="font-style:normal;font-variant:normal;font-weight:normal;font-stretch:normal;font-size:4.74025px;font-family:sans-serif;-inkscape-font-specification:sans-serif;text-align:center;text-anchor:middle;fill:#ffffff;fill-opacity:1;stroke-width:1.4723;stroke-dasharray:none"
             x="166.70415"
             y="119.88809"
             id="tspan1877">(x1 ~ Nicolas et al. 2021,</tspan><tspan
             sodipodi:role="line"
             style="font-style:normal;font-variant:normal;font-weight:normal;font-stretch:normal;font-size:4.74025px;font-family:sans-serif;-inkscape-font-specification:sans-serif;text-align:center;text-anchor:middle;fill:#ffffff;fill-opacity:1;stroke-width:1.4723;stroke-dasharray:none"
             x="166.70415"
             y="127.67899"
             id="tspan1879">c ~ Scolnic &amp; Kessler 2016</tspan><tspan
             sodipodi:role="line"
             style="font-style:normal;font-variant:normal;font-weight:normal;font-stretch:normal;font-size:4.74025px;font-family:sans-serif;-inkscape-font-specification:sans-serif;text-align:center;text-anchor:middle;fill:#ffffff;fill-opacity:1;stroke-width:1.4723;stroke-dasharray:none"
             x="166.70415"
             y="135.46989"
             id="tspan1883">and  σ<tspan
   style="font-size:3.08117px;baseline-shift:sub;stroke-width:1.4723"
   id="tspan1891">int</tspan> ~ N(0, 0.12))</tspan><tspan
             sodipodi:role="line"
             style="font-size:6.23272px;text-align:center;text-anchor:middle;fill:#ffffff;fill-opacity:1;stroke-width:1.4723;stroke-dasharray:none"
             x="166.70415"
             y="143.26079"
             id="tspan6601-8-9" /></text><rect
           style="fill:#000000;fill-opacity:0;stroke:#e88a0d;stroke-width:1.76356;stroke-linejoin:round;stroke-miterlimit:2.3;stroke-opacity:1;paint-order:stroke fill markers"
           id="rect5062-4-4"
           width="68.115753"
           height="41.623257"
           x="131.91701"
           y="97.197456"
           ry="0.39772108" /><text
           xml:space="preserve"
           style="font-size:10.3488px;line-height:1.25;font-family:'Uber Move';-inkscape-font-specification:'Uber Move';stroke-width:0.25872"
           x="172.86218"
           y="137.53127"
           id="text1889"
           transform="scale(1.0232839,0.9772459)"><tspan
             sodipodi:role="line"
             id="tspan1887"
             style="stroke-width:0.25872"
             x="172.86218"
             y="137.53127" /></text></g></g></g></svg>
